<?xml version="1.0" encoding="UTF-8" standalone="no"?>
<svg
   xmlns:dc="http://purl.org/dc/elements/1.1/"
   xmlns:cc="http://creativecommons.org/ns#"
   xmlns:rdf="http://www.w3.org/1999/02/22-rdf-syntax-ns#"
   xmlns:svg="http://www.w3.org/2000/svg"
   xmlns="http://www.w3.org/2000/svg"
   xmlns:sodipodi="http://sodipodi.sourceforge.net/DTD/sodipodi-0.dtd"
   xmlns:inkscape="http://www.inkscape.org/namespaces/inkscape"
   inkscape:version="1.0rc1 (09960d6, 2020-04-09)"
   sodipodi:docname="image2vector.svg"
   viewBox="0 0 183.44289 42.643365"
   height="42.643364"
   width="183.44289"
   version="1.1"
   id="svg">
  <metadata
     id="metadata19">
    <rdf:RDF>
      <cc:Work
         rdf:about="">
        <dc:format>image/svg+xml</dc:format>
        <dc:type
           rdf:resource="http://purl.org/dc/dcmitype/StillImage" />
        <dc:title></dc:title>
      </cc:Work>
    </rdf:RDF>
  </metadata>
  <defs
     id="defs17" />
  <sodipodi:namedview
     fit-margin-bottom="0"
     fit-margin-right="0"
     fit-margin-left="0"
     fit-margin-top="0"
     inkscape:current-layer="svgg"
     inkscape:window-maximized="1"
     inkscape:window-y="23"
     inkscape:window-x="0"
     inkscape:cy="135.66564"
     inkscape:cx="160.52552"
     inkscape:zoom="2.2812652"
     inkscape:snap-text-baseline="true"
     showguides="false"
     showgrid="false"
     id="namedview15"
     inkscape:window-height="941"
     inkscape:window-width="1680"
     inkscape:pageshadow="2"
     inkscape:pageopacity="0"
     guidetolerance="10"
     gridtolerance="10"
     objecttolerance="10"
     borderopacity="1"
     bordercolor="#666666"
     pagecolor="#ffffff"
     inkscape:document-rotation="0" />
  <g
     transform="translate(-1.855063,-1.0536785)"
     id="svgg">
    <path
       inkscape:export-ydpi="54.029518"
       inkscape:export-xdpi="54.029518"
       inkscape:connector-curvature="0"
       style="mix-blend-mode:overlay;fill:#ec615c;fill-opacity:1;stroke:none;stroke-width:1.08971;stroke-miterlimit:4;stroke-dasharray:none;stroke-opacity:1"
       fill-rule="evenodd"
       fill="#f48021"
       stroke="none"
       d="m 20.603053,3.1455285 c -0.0338,0.0524 -0.0107,0.44923 0.0512,0.8822795 0.18948,1.32342 -0.0702,3.03494 -0.69311,4.56875 -0.45141,1.11057 -0.73579,1.66025 -1.75301,3.38477 -0.28622,0.48539 -0.79502,1.27425 -0.99222,1.53872 -0.0901,0.12082 -0.41314,0.57565 -0.71776,1.01083 -0.30462,0.43517 -0.69606,0.98905 -0.8697,1.23104 -0.17365,0.24164 -0.56362,0.79553 -0.86639,1.2307 -0.30279,0.43517 -0.63536,0.91002 -0.73911,1.05508 -0.53565,0.74881 -1.01722,1.45724 -1.01722,1.49693 0,0.0242 -0.13612,0.25148 -0.30242,0.50436 -0.5213,0.79447 -1.631611,2.88567 -1.631611,3.07428 0,0.0453 -0.124347,0.37862 -0.276287,0.74073 -0.362744,0.86507 -0.776626,3.47854 -0.686491,4.33483 0.157093,1.49342 0.423819,2.8632 0.67362,3.45922 0.145681,0.34772 0.292476,0.75198 0.32595,0.8988 0.03347,0.14646 0.183949,0.44324 0.334046,0.65925 0.150103,0.216 0.273343,0.42954 0.273343,0.47486 7.4e-4,0.19177 1.04593,1.55944 1.58195,2.07012 1.33877,1.27565 1.97743,1.29147 1.27329,0.0316 -0.15194,-0.27183 -0.27629,-0.54332 -0.27629,-0.60303 0,-0.0601 -0.10669,-0.33157 -0.2373,-0.60376 -0.13059,-0.27221 -0.33698,-0.89985 -0.45913,-1.39542 -0.12214,-0.49524 -0.29247,-1.11796 -0.37893,-1.38385 -0.22588,-0.69612 -0.22993,-5.26908 -0.005,-5.9343 0.0817,-0.242 0.25017,-0.77586 0.37489,-1.1868 0.55736,-1.83937 1.80968,-3.78937 3.30664,-5.14931 1.71843,-1.56156 2.60248,-1.67677 1.63565,-0.21391 -0.14384,0.21777 -0.31049,0.57355 -0.37083,0.79096 -0.06,0.21742 -0.18542,0.53703 -0.27813,0.71088 -0.66111,1.23702 -1.03084,6.04531 -0.61475,7.99321 0.0879,0.41094 0.22184,1.15518 0.29799,1.65322 0.0758,0.49838 0.20235,1.05227 0.28107,1.23069 0.0783,0.17878 0.22295,0.65258 0.32118,1.05299 0.0979,0.40039 0.2818,0.92301 0.40873,1.16184 0.12656,0.23884 0.2303,0.48926 0.2303,0.55634 0,0.0671 0.16555,0.43447 0.36826,0.8159 0.20234,0.38178 0.3679,0.72774 0.36826,0.76884 7.3e-4,0.12399 0.80091,1.37962 1.69195,2.65421 0.90393,1.29356 3.83458,3.98607 4.35257,3.99871 0.0438,7.1e-4 0.18321,0.0794 0.30977,0.17386 0.12692,0.0948 0.31786,0.1728 0.42455,0.17386 0.22257,0.002 1.56207,-0.569 1.6489,-0.70316 0.0316,-0.0491 0.25164,-0.18967 0.48857,-0.31259 2.21767,-1.14851 5.25979,-4.20453 6.64491,-6.6747 0.13576,-0.24199 0.31381,-0.55845 0.39586,-0.7035 0.29063,-0.51315 0.79796,-1.67571 0.90171,-2.06556 0.0578,-0.21741 0.17879,-0.53387 0.26893,-0.70316 1.11839,-2.10209 1.12061,-8.02411 0.003,-10.9024 -0.14054,-0.36247 -0.28364,-0.77797 -0.31787,-0.92302 -0.0342,-0.14507 -0.16076,-0.46152 -0.2807,-0.70316 -0.1203,-0.24199 -0.32484,-0.65715 -0.45471,-0.92338 -0.49445,-1.01363 -1.18095,-2.07469 -2.14189,-3.31136 -0.67582,-0.86962 -11.83186,-11.6659595 -12.30314,-11.9069095 -0.26046,-0.13277 -0.51653,-0.16823 -0.57391,-0.0794"
       id="path2" />
    <g
       transform="translate(-87.341937,-177.83447)"
       style="font-style:normal;font-weight:normal;font-size:40px;line-height:1.25;font-family:sans-serif;fill:#3c3c45;fill-opacity:1;stroke:none"
       id="text861"
       aria-label="rectorch"
       inkscape:export-xdpi="54.029518"
       inkscape:export-ydpi="54.029518">
      <path
         inkscape:connector-curvature="0"
         inkscape:export-ydpi="51.934406"
         inkscape:export-xdpi="51.934406"
         id="path863"
         style="font-style:normal;font-variant:normal;font-weight:bold;font-stretch:normal;font-family:Sansation;-inkscape-font-specification:'Sansation Bold';fill:#3c3c45;fill-opacity:1"
         d="m 132.11255,215.13623 v -20.50781 h 4.00391 l 0.64453,2.61719 q 2.69531,-2.61719 5.70312,-2.61719 v 4.17969 q -2.89062,0 -5.17578,2.40234 v 13.92578 z" />
      <path
         inkscape:connector-curvature="0"
         inkscape:export-ydpi="51.934406"
         inkscape:export-xdpi="51.934406"
         id="path865"
         style="font-style:normal;font-variant:normal;font-weight:bold;font-stretch:normal;font-family:Sansation;-inkscape-font-specification:'Sansation Bold';fill:#3c3c45;fill-opacity:1"
         d="m 154.04614,194.62842 q 9.33594,0 9.33594,9.53125 0,1.26953 -0.17578,2.53906 h -13.61328 q 0,4.33594 6.36719,4.33594 3.10546,0 6.21093,-0.58594 v 4.10156 q -2.71484,0.58594 -6.60156,0.58594 -11.15234,0 -11.15234,-10.48828 0,-10.01953 9.6289,-10.01953 z m -4.45312,8.47656 h 8.75 v -0.15625 q 0,-4.25781 -4.29688,-4.25781 -4.10156,0 -4.45312,4.41406 z" />
      <path
         inkscape:connector-curvature="0"
         inkscape:export-ydpi="51.934406"
         inkscape:export-xdpi="51.934406"
         id="path867"
         style="font-style:normal;font-variant:normal;font-weight:bold;font-stretch:normal;font-family:Sansation;-inkscape-font-specification:'Sansation Bold';fill:#3c3c45;fill-opacity:1"
         d="m 182.40552,214.55029 q -2.53906,0.58594 -5.27344,0.58594 -10.9375,0 -10.9375,-10.64453 0,-9.86328 10.9375,-9.86328 2.73438,0 5.27344,0.58594 v 4.10156 q -2.53906,-0.58594 -4.88281,-0.58594 -6.15235,0 -6.15235,5.76172 0,6.54297 6.15235,6.54297 2.34375,0 4.88281,-0.58594 z" />
      <path
         inkscape:connector-curvature="0"
         inkscape:export-ydpi="51.934406"
         inkscape:export-xdpi="51.934406"
         id="path869"
         style="font-style:normal;font-variant:normal;font-weight:bold;font-stretch:normal;font-family:Sansation;-inkscape-font-specification:'Sansation Bold';fill:#3c3c45;fill-opacity:1"
         d="m 185.56958,191.30811 h 3.82813 l 0.78125,3.32031 h 5.15625 v 4.10156 h -4.58985 v 9.43359 q 0,2.8711 2.48047,2.8711 h 2.10938 v 4.10156 h -4.60938 q -5.15625,0 -5.15625,-5.52734 z" />
      <path
         inkscape:connector-curvature="0"
         inkscape:export-ydpi="51.934406"
         inkscape:export-xdpi="51.934406"
         id="path871"
         style="font-style:normal;font-variant:normal;font-weight:bold;font-stretch:normal;font-family:Sansation;-inkscape-font-specification:'Sansation Bold';fill:#3c3c45;fill-opacity:1"
         d="m 203.03052,204.8042 q 0,6.42578 4.98047,6.42578 4.98047,0 4.98047,-6.42578 0,-6.26953 -4.98047,-6.26953 -4.98047,0 -4.98047,6.26953 z m -5.17578,0.0781 q 0,-10.3125 10.15625,-10.3125 10.15625,0 10.15625,10.3125 0,10.29297 -10.15625,10.29297 -10.11719,0 -10.15625,-10.29297 z" />
      <path
         inkscape:connector-curvature="0"
         inkscape:export-ydpi="51.934406"
         inkscape:export-xdpi="51.934406"
         id="path873"
         style="font-style:normal;font-variant:normal;font-weight:bold;font-stretch:normal;font-family:Sansation;-inkscape-font-specification:'Sansation Bold';fill:#3c3c45;fill-opacity:1"
         d="m 222.11255,215.13623 v -20.50781 h 4.00391 l 0.64453,2.61719 q 2.69531,-2.61719 5.70312,-2.61719 v 4.17969 q -2.89062,0 -5.17578,2.40234 v 13.92578 z" />
      <path
         inkscape:connector-curvature="0"
         inkscape:export-ydpi="51.934406"
         inkscape:export-xdpi="51.934406"
         id="path875"
         style="font-style:normal;font-variant:normal;font-weight:bold;font-stretch:normal;font-family:Sansation;-inkscape-font-specification:'Sansation Bold';fill:#3c3c45;fill-opacity:1"
         d="m 250.53052,214.55029 q -2.53906,0.58594 -5.27344,0.58594 -10.9375,0 -10.9375,-10.64453 0,-9.86328 10.9375,-9.86328 2.73438,0 5.27344,0.58594 v 4.10156 q -2.53906,-0.58594 -4.88281,-0.58594 -6.15235,0 -6.15235,5.76172 0,6.54297 6.15235,6.54297 2.34375,0 4.88281,-0.58594 z" />
      <path
         inkscape:connector-curvature="0"
         inkscape:export-ydpi="51.934406"
         inkscape:export-xdpi="51.934406"
         id="path877"
         style="font-style:normal;font-variant:normal;font-weight:bold;font-stretch:normal;font-family:Sansation;-inkscape-font-specification:'Sansation Bold';fill:#3c3c45;fill-opacity:1"
         d="m 253.98755,215.13623 v -27.92969 h 5.17578 v 10.03907 q 2.42188,-2.61719 6.19141,-2.61719 7.28515,0 7.28515,7.57812 v 12.92969 h -5.17578 v -12.92969 q 0,-3.39843 -3.3789,-3.39843 -2.51954,0 -4.92188,2.01171 v 14.31641 z" />
    </g>
    <path
       inkscape:export-ydpi="54.029518"
       inkscape:export-xdpi="54.029518"
       inkscape:connector-curvature="0"
       id="path0"
       style="fill:#3c3c45;fill-opacity:1;fill-rule:evenodd;stroke-width:0.333704"
       d="m 18.381193,1.0536785 c -0.0835,0 -2.30224,2.25832 -5.20896,5.3013695 -2.785232,2.91587 -5.312546,5.54936 -5.616921,5.85308 -2.216428,2.21004 -4.031491,5.11572 -4.825745,7.72376 -0.06464,0.2122 -0.229632,0.75276 -0.366715,1.20114 -0.6445011,2.10995 -0.6837371,7.05953 -0.07043,8.89009 0.09323,0.278 0.242184,0.81274 0.331194,1.18776 0.089,0.37501 0.210509,0.761 0.270281,0.85767 0.05941,0.0967 0.154735,0.32675 0.211908,0.51085 0.102653,0.32979 0.712403,1.61605 1.123008,2.36815 1.038859,1.90358 2.971017,4.10605 4.724858,5.38641 1.190889,0.86935 1.333503,0.95264 3.627232,2.12845 0.2235,0.1145 0.57848,0.24663 0.78802,0.29326 0.20984,0.0466 0.57528,0.16706 0.81274,0.26715 0.84135,0.3548 4.52272,0.83731 4.72867,0.61998 0.10005,-0.10557 -0.93211,-0.64771 -1.53794,-0.80746 -0.3281,-0.0867 -0.73549,-0.23122 -0.90538,-0.32137 -0.16957,-0.0898 -0.44375,-0.20959 -0.60909,-0.26581 -0.34499,-0.11792 -1.62686,-0.80618 -1.94781,-1.04647 -0.1189,-0.0888 -0.2407,-0.16137 -0.27092,-0.16137 -0.45933,0 -3.515219,-2.79449 -4.436811,-4.05739 -0.199131,-0.27253 -0.444304,-0.60576 -0.545008,-0.74116 -0.736748,-0.99071 -1.955798,-3.74208 -2.16987,-4.89766 -0.06562,-0.35377 -0.175089,-0.91388 -0.243633,-1.244 -0.163396,-0.78843 -0.163068,-2.47054 0.0012,-3.44342 0.0705,-0.41889 0.177826,-1.0994 0.237925,-1.51247 0.322572,-2.21279 1.955154,-5.72632 3.820749,-8.22123 1.048275,-1.40205 2.732858,-3.46875 4.889188,-6.00104 2.80634,-3.29535 3.88084,-5.40609 3.88864,-7.6373895 0.006,-1.5738 -0.20084,-2.23088 -0.70045,-2.23088 z" />
  </g>
</svg>
